<?xml version="1.0" encoding="UTF-8" standalone="no"?>
<!-- Generated by IcoMoon.io -->

<svg
   xmlns:dc="http://purl.org/dc/elements/1.1/"
   xmlns:cc="http://creativecommons.org/ns#"
   xmlns:rdf="http://www.w3.org/1999/02/22-rdf-syntax-ns#"
   xmlns:svg="http://www.w3.org/2000/svg"
   xmlns="http://www.w3.org/2000/svg"
   xmlns:sodipodi="http://sodipodi.sourceforge.net/DTD/sodipodi-0.dtd"
   xmlns:inkscape="http://www.inkscape.org/namespaces/inkscape"
   version="1.1"
   width="512"
   height="512"
   viewBox="0 0 512 512"
   id="svg2"
   inkscape:version="0.91 r13725"
   sodipodi:docname="address_domain_model_address.svg">
  <metadata
     id="metadata19">
    <rdf:RDF>
      <cc:Work
         rdf:about="">
        <dc:format>image/svg+xml</dc:format>
        <dc:type
           rdf:resource="http://purl.org/dc/dcmitype/StillImage" />
      </cc:Work>
    </rdf:RDF>
  </metadata>
  <defs
     id="defs17" />
  <sodipodi:namedview
     pagecolor="#ffffff"
     bordercolor="#666666"
     borderopacity="1"
     objecttolerance="10"
     gridtolerance="10"
     guidetolerance="10"
     inkscape:pageopacity="0"
     inkscape:pageshadow="2"
     inkscape:window-width="1123"
     inkscape:window-height="878"
     id="namedview15"
     showgrid="false"
     inkscape:zoom="0.4609375"
     inkscape:cx="251.66102"
     inkscape:cy="256"
     inkscape:window-x="275"
     inkscape:window-y="214"
     inkscape:window-maximized="0"
     inkscape:current-layer="svg2" />
  <title
     id="title4">user</title>
  <g
     id="icomoon-ignore" />
  <path
     d="M458.903 114.538c-11.106-15.146-26.587-32.85-43.589-49.852s-34.706-32.482-49.852-43.589c-25.787-18.91-38.296-21.097-45.462-21.097h-248c-22.056 0-40 17.944-40 40v432c0 22.056 17.944 40 40 40h368c22.056 0 40-17.944 40-40v-312c0-7.166-2.186-19.675-21.097-45.462zM392.687 87.313c15.35 15.35 27.4 29.199 36.29 40.687h-76.977v-76.973c11.492 8.89 25.339 20.939 40.687 36.286zM448 472c0 4.336-3.664 8-8 8h-368c-4.336 0-8-3.664-8-8v-432c0-4.336 3.664-8 8-8 0 0 247.978-0.001 248 0v112c0 8.836 7.163 16 16 16h112v312z"
     id="path7"
     style="fill:#57a6b1;fill-opacity:1" />
  <path
     d="M368 416h-224c-8.836 0-16-7.163-16-16s7.164-16 16-16h224c8.837 0 16 7.163 16 16s-7.163 16-16 16z"
     id="path9"
     style="fill:#57a6b1;fill-opacity:1" />
  <path
     d="M368 352h-224c-8.836 0-16-7.163-16-16s7.164-16 16-16h224c8.837 0 16 7.163 16 16s-7.163 16-16 16z"
     id="path11"
     style="fill:#57a6b1;fill-opacity:1" />
  <path
     d="M368 288h-224c-8.836 0-16-7.163-16-16s7.164-16 16-16h224c8.837 0 16 7.163 16 16s-7.163 16-16 16z"
     id="path13"
     style="fill:#57a6b1;fill-opacity:1" />
</svg>
